<svg xmlns="http://www.w3.org/2000/svg" xmlns:xlink="http://www.w3.org/1999/xlink" width="400" height="400" viewBox="0 0 400 400">
  <defs>
    <clipPath id="clip-path">
      <rect width="400" height="400" rx="200"/>
    </clipPath>
  </defs>
  <g clip-path="url(#clip-path)">
    <rect width="400" height="400" fill="#f08984"/>
    <g transform="translate(15 15)" fill="none" stroke="#fff" stroke-width="14">
      <rect width="370" height="370" rx="183" stroke="none"/>
      <rect x="7" y="7" width="356" height="356" rx="176" fill="none"/>
    </g>
    <g transform="translate(-191.916 -195.112)">
      <path id="path1662" d="M286.009,440.994c-2.994-4.924-4.586-13.455-4.493-24.08.125-14.241,3.133-26.767,10.684-44.5,6.039-14.178,15.692-30.25,18.168-30.25.334,0,1.858,2.938,3.387,6.528s3.023,6.531,3.32,6.535,3.973-3.726,8.169-8.288c13.825-15.032,25.649-24.351,39.711-31.3,10.466-5.171,32.045-11.818,32.045-9.87a35.883,35.883,0,0,1-3.762,5.464c-2.069,2.689-3.6,5.048-3.409,5.242s3.278-.715,6.854-2.019c17.22-6.284,51.782-12.939,51.782-9.97a24.986,24.986,0,0,1-2.529,5.422c-1.391,2.464-2.149,4.481-1.684,4.481s3.348-.6,6.409-1.341c10.541-2.54,40.847-1.716,44.358,1.206,2.681,2.232.886,3.335-9.045,5.562-34.777,7.8-69.555,23.97-101.858,47.368C356.534,387.162,326.238,412.72,310,429.711c-8.332,8.716-14.318,13.043-18.736,13.541-3.4.383-3.726.243-5.25-2.262Z" fill="#fff"/>
      <path id="path1664" d="M355.121,491.868c-1.123-.186-5.167-.756-8.986-1.267-21.764-2.909-35.1-12.265-35.122-24.643-.009-4.368,2.462-8.081,11.61-17.448,24.034-24.609,67.961-59.788,95.483-76.468,24.447-14.816,54.835-27.139,79.388-32.193,9.255-1.9,9.9-1.572,9.383,4.853-.511,6.362-5.2,17.872-11.792,28.936-2.621,4.4-4.87,8.221-5,8.491s2.262.008,5.31-.583c8.678-1.68,8.654-1.686,7.173,1.857-2.576,6.164-9.367,14.657-33.06,41.343l-3.653,4.114,2.836-.492c1.56-.271,4.632-.744,6.827-1.051l3.991-.559-1.54,2.763c-2.6,4.658-16.666,18.111-24.05,23-9.017,5.966-24.466,13.345-38.175,18.234-5.97,2.129-10.565,4.141-10.211,4.472a58.6,58.6,0,0,0,7.016,3.228c6.266,2.584,6.348,2.655,4.9,4.256-2.292,2.537-8.584,5.4-15.966,7.26-5.642,1.423-9.815,1.745-25.533,1.97-10.334.148-19.708.116-20.831-.07Z" transform="translate(-4.685 -5.569)" fill="#fff"/>
    </g>
  </g>
</svg>
