<?xml version="1.0" encoding="UTF-8"?>
<svg xmlns:xlink="http://www.w3.org/1999/xlink" width="506mm" height="502mm" version="1.1" viewBox="0 0 506 502"
     xmlns="http://www.w3.org/2000/svg">
    <defs>
        <linearGradient id="g" x1="119" x2="115" y1="114" y2="106"
                        gradientTransform="matrix(6.7 -1.97 1.97 6.7 -66.4 346)" gradientUnits="userSpaceOnUse"
                        xlink:href="#a"/>
        <linearGradient id="a">
            <stop stop-color="#fff" offset="0"/>
            <stop stop-color="#fff" stop-opacity="0" offset="1"/>
        </linearGradient>
        <linearGradient id="e" x1="112" x2="93.6" y1="120" y2="103"
                        gradientTransform="matrix(6.7 -1.97 1.97 6.7 -66.4 346)" gradientUnits="userSpaceOnUse"
                        xlink:href="#a"/>
        <linearGradient id="f" x1="116" x2="104" y1="120" y2="104"
                        gradientTransform="matrix(6.7 -1.97 1.97 6.7 -66.4 346)" gradientUnits="userSpaceOnUse"
                        xlink:href="#a"/>
        <linearGradient id="d" x1="132" x2="137" y1="119" y2="105"
                        gradientTransform="matrix(6.7 -1.97 1.97 6.7 -66.4 346)" gradientUnits="userSpaceOnUse"
                        xlink:href="#a"/>
        <linearGradient id="c" x1="138" x2="148" y1="117" y2="104"
                        gradientTransform="matrix(6.7 -1.97 1.97 6.7 -66.4 346)" gradientUnits="userSpaceOnUse"
                        xlink:href="#a"/>
        <linearGradient id="b" x1="144" x2="159" y1="117" y2="103"
                        gradientTransform="matrix(6.7 -1.97 1.97 6.7 -66.4 346)" gradientUnits="userSpaceOnUse"
                        xlink:href="#a"/>
    </defs>
    <g transform="translate(-719 -600)">
        <g shape-rendering="auto">
            <path d="m901 809-2.54 2.02 55 69.2c0.115-0.17 0.203-0.347 0.322-0.516 0.55-0.775 1.13-1.47 1.72-2.13z"
                  color="#000000" color-rendering="auto" dominant-baseline="auto" fill="url(#g)" image-rendering="auto"
                  solid-color="#000000" stop-color="#000000"
                  style="font-feature-settings:normal;font-variant-alternates:normal;font-variant-caps:normal;font-variant-east-asian:normal;font-variant-ligatures:normal;font-variant-numeric:normal;font-variant-position:normal;font-variation-settings:normal;inline-size:0;isolation:auto;mix-blend-mode:normal;shape-margin:0;shape-padding:0;text-decoration-color:#000000;text-decoration-line:none;text-decoration-style:solid;text-indent:0;text-orientation:mixed;text-transform:none;white-space:normal"/>
            <path d="m734 834-1.47 2.9 230 116c2.12-0.124 4.32-0.238 6.54-0.35z" color="#000000" color-rendering="auto"
                  dominant-baseline="auto" fill="url(#e)" image-rendering="auto" solid-color="#000000"
                  stop-color="#000000"
                  style="font-feature-settings:normal;font-variant-alternates:normal;font-variant-caps:normal;font-variant-east-asian:normal;font-variant-ligatures:normal;font-variant-numeric:normal;font-variant-position:normal;font-variation-settings:normal;inline-size:0;isolation:auto;mix-blend-mode:normal;shape-margin:0;shape-padding:0;text-decoration-color:#000000;text-decoration-line:none;text-decoration-style:solid;text-indent:0;text-orientation:mixed;text-transform:none;white-space:normal"/>
            <path d="m818 822-1.93 2.62 147 109c-1.24-2.26-2.39-4.45-3.48-6.61z" color="#000000" color-rendering="auto"
                  dominant-baseline="auto" fill="url(#f)" image-rendering="auto" solid-color="#000000"
                  stop-color="#000000"
                  style="font-feature-settings:normal;font-variant-alternates:normal;font-variant-caps:normal;font-variant-east-asian:normal;font-variant-ligatures:normal;font-variant-numeric:normal;font-variant-position:normal;font-variation-settings:normal;inline-size:0;isolation:auto;mix-blend-mode:normal;shape-margin:0;shape-padding:0;text-decoration-color:#000000;text-decoration-line:none;text-decoration-style:solid;text-indent:0;text-orientation:mixed;text-transform:none;white-space:normal"/>
            <path d="m924 976c9.13-3.92 25.2-5.98 46.5-7.03 21.3-1.05 47.4-0.839 75.2 0.774 17.8 1.03 34.7 2.6 50.2 4.49-0.797 2.74-0.996 5.68-0.556 8.62-15.4-1.89-32.3-3.47-50.1-4.5-27.5-1.6-53.4-1.8-74.2-0.766-20.9 1.03-36.8 4.1-43.5 6.32-1.16 0.37-1.11 0.485-1.3 0.816-0.132 0.296 0.328 0.733 0.367 0.746 0.896 0.681 1.71 1.03 3.82 1.96 8.41 3.69 24.4 9.93 47.5 13.4 2.35 0.352 18.8 3.59 18.4 5.94-0.326 2.2-15.9-1.03-18.1-1.15l-4e-3 0.01c-0.129 0.01-0.271-0.021-0.405-0.056-23.5-3.48-40.6-6.31-50.6-10.7-2.51-1.1-4.84-1.74-6.56-3.05-1.73-1.32-3.27-2.85-3.93-5.21-0.657-2.36 0.277-5.18 1.78-6.85 1.5-1.67 3.35-2.73 5.63-3.71zm177-1.11c6.75 0.879 13.3 1.81 19.3 2.81 2.07 0.344 4.04 0.696 6.01 1.05 0.356 2.99-0.293 5.96-1.82 8.46-1.84-0.336-3.68-0.672-5.61-0.993-5.78-0.964-12-1.87-18.6-2.72-0.748-2.95-0.469-5.96 0.703-8.61zm31.1 4.96c15.1 2.96 26.7 6.25 33.6 10.2 2.17 1.24 3.92 2.49 5.23 4.3 1.31 1.81 1.96 4.7 1.05 7-0.896 2.3-2.59 3.65-4.45 4.77-1.86 1.11-4.05 2.01-6.65 2.81-10.4 3.22-18.5 2.85-42.2 3.59-2.38 0.075-24.8 0.18-25.4-1.7 0.393-2.87 23.6-3.59 25.9-3.67 23.3-0.726 30.4-3.78 39.2-6.47 2.18-0.662 4.6-1.02 4.75-1.93 0.056-0.498-0.632-0.638-1.65-1.21-4.98-2.84-16.2-6.21-31.2-9.22 1.23-2.63 1.86-5.53 1.8-8.48z"
                  color="#000000" color-rendering="auto" dominant-baseline="auto" fill="#42aee5" image-rendering="auto"
                  solid-color="#000000" stop-color="#000000"
                  style="font-feature-settings:normal;font-variant-alternates:normal;font-variant-caps:normal;font-variant-east-asian:normal;font-variant-ligatures:normal;font-variant-numeric:normal;font-variant-position:normal;font-variation-settings:normal;inline-size:0;isolation:auto;mix-blend-mode:normal;paint-order:fill markers stroke;shape-margin:0;shape-padding:0;text-decoration-color:#000000;text-decoration-line:none;text-decoration-style:solid;text-indent:0;text-orientation:mixed;text-transform:none;white-space:normal"/>
            <path d="m1101 986c2.95 7.03 11 10.3 18.1 7.38 7.03-2.95 10.3-11 7.38-18.1-2.95-7.03-11-10.3-18.1-7.38-7.03 2.95-10.3 11-7.38 18.1"
                  color="#000000" color-rendering="auto" dominant-baseline="auto" fill="#ff790a" image-rendering="auto"
                  solid-color="#000000" stop-color="#000000"
                  style="font-feature-settings:normal;font-variant-alternates:normal;font-variant-caps:normal;font-variant-east-asian:normal;font-variant-ligatures:normal;font-variant-numeric:normal;font-variant-position:normal;font-variation-settings:normal;inline-size:0;isolation:auto;mix-blend-mode:normal;paint-order:fill markers stroke;shape-margin:0;shape-padding:0;text-decoration-color:#000000;text-decoration-line:none;text-decoration-style:solid;text-indent:0;text-orientation:mixed;text-transform:none;white-space:normal"/>
            <path d="m1109 886c2.02-0.798 4.13-1.33 6.5-0.681 2.37 0.654 4.3 2.91 4.96 5.05 0.658 2.14 0.618 4.27 0.281 6.74-1.34 9.85-7.87 24.7-17.9 43.4-10.1 18.8-23.7 41.1-39.4 64-15.7 23-31.5 43.8-45.4 60-13.8 16.2-25.3 27.7-34 32.6-2.18 1.22-4.15 2.08-6.38 2.27-2.23 0.189-5.04-0.756-6.54-2.71-1.51-1.95-1.8-4.1-1.8-6.27-4e-3 -2.16 0.364-4.5 1.02-7.15 1.07-4.34 2.5-8.07 4.56-12.3 1.89 1.76 4.18 2.99 6.65 3.47-1.24 4.03-1.95 7.41-2.82 10.9-0.544 2.21-1.5 4.47-0.79 5.07 0.4 0.305 0.869-0.218 1.89-0.786 6.22-3.49 18.1-14.8 31.7-30.7 13.6-15.9 29.3-36.6 44.8-59.3 15.5-22.7 29-44.8 38.9-63.2 9.87-18.4 15.4-33.6 17-40.5 0.268-1.19 0.153-1.2-0.028-1.53-0.192-0.264-0.805-0.0936-0.834-0.0796-1.04 0.423-1.77 0.94-3.64 2.27-7.5 5.31-21.1 15.8-35.9 33.8-1.51 1.83-12.7 13.8-14.5 12.3-1.72-1.41 8.98-12.7 10.2-14.5v-6e-3c0.063-0.124 0.166-0.214 0.254-0.319 15.1-18.4 26.3-31.5 35.3-37.9 2.24-1.58 3.98-3.25 5.99-4.05zm-105 138c0.198-0.124 0.36-0.178 0.483-0.151 2.25 1.81-9.99 22.3-11.1 24.4-0.419 0.751-0.732 1.37-1.12 2.08-1.41-1.16-3.03-2-4.77-2.52 0.571-1.01 0.955-1.69 1.56-2.77 1.09-1.95 12-19.2 15-21zm-18.7 27.5c1.83 0.342 3.52 1.21 4.86 2.53-3.53 6.73-5.79 11.9-7.34 16.2-2.37-0.174-4.6-1.23-6.23-2.99 2.14-4.1 5.13-9.38 8.71-15.7z"
                  color="#000000" color-rendering="auto" dominant-baseline="auto" fill="#42aee5" image-rendering="auto"
                  solid-color="#000000" stop-color="#000000"
                  style="font-feature-settings:normal;font-variant-alternates:normal;font-variant-caps:normal;font-variant-east-asian:normal;font-variant-ligatures:normal;font-variant-numeric:normal;font-variant-position:normal;font-variation-settings:normal;inline-size:0;isolation:auto;mix-blend-mode:normal;paint-order:fill markers stroke;shape-margin:0;shape-padding:0;text-decoration-color:#000000;text-decoration-line:none;text-decoration-style:solid;text-indent:0;text-orientation:mixed;text-transform:none;white-space:normal"/>
            <path d="m974 1065c2.07 4.94 7.76 7.26 12.7 5.19 4.94-2.07 7.26-7.76 5.19-12.7-2.07-4.94-7.76-7.26-12.7-5.19-4.94 2.07-7.26 7.76-5.19 12.7"
                  color="#000000" color-rendering="auto" dominant-baseline="auto" fill="#ff790a" image-rendering="auto"
                  solid-color="#000000" stop-color="#000000"
                  style="font-feature-settings:normal;font-variant-alternates:normal;font-variant-caps:normal;font-variant-east-asian:normal;font-variant-ligatures:normal;font-variant-numeric:normal;font-variant-position:normal;font-variation-settings:normal;inline-size:0;isolation:auto;mix-blend-mode:normal;paint-order:fill markers stroke;shape-margin:0;shape-padding:0;text-decoration-color:#000000;text-decoration-line:none;text-decoration-style:solid;text-indent:0;text-orientation:mixed;text-transform:none;white-space:normal"/>
            <path d="m971 887c1.15-0.499 2.41-0.736 3.53-0.683 2.24 0.112 4.23 0.882 6.43 2.04 1.39 0.73 2.88 1.68 4.42 2.73-2.49 1.8-4.26 4.29-5.29 7.09-1.16-0.86-2.23-1.62-3.12-2.19-1.03-0.656-1.08-0.555-1.45-0.497-0.314 0.0873-0.353 0.724-0.353 0.754 0.0349 1.12 0.279 1.98 0.886 4.2 2.43 8.86 7.65 25.2 19.6 45.3 1.21 2.05 7.37 12.1 5.33 13.3-1.91 1.13-7.57-8.27-8.87-10.1l0.014 2.8e-4c-0.0741-0.115-0.161-0.227-0.228-0.346-12.1-20.4-20.7-35.5-23.6-46-0.724-2.64-1.7-4.86-1.77-7.02-0.0629-2.17 0.15-4.33 1.57-6.33 0.711-1 1.76-1.77 2.91-2.26zm18.4 7.08c4.76 3.77 10.1 8.72 15.9 14.8-1.14 2.68-3.27 4.94-6.18 6.16-0.014 6e-3 -0.0349 7e-3 -0.0489 0.014-5.93-5.94-11.2-10.6-15.5-14.1 0.891-2.9 2.9-5.39 5.78-6.87zm19.3 18.4c2.26 2.4 4.56 4.89 6.96 7.57 14.2 15.9 30.5 36.3 46.8 58.9 16.2 22.6 30.4 44.6 41 63.1 10.5 18.5 17.4 33.3 19.1 43.1 0.406 2.46 0.536 4.61-0.042 6.77-0.582 2.16-2.42 4.48-4.77 5.23-2.35 0.754-4.47 0.289-6.51-0.45-2.03-0.739-4.11-1.88-6.37-3.4-9.07-6.07-13.9-12.6-29.4-30.5-1.56-1.8-17.6-21-16.5-22.7 2.47-1.5 19.5 17.9 21 19.7 15.3 17.7 22.1 21.3 29.7 26.3 1.9 1.27 3.69 2.93 4.5 2.47 0.42-0.274 0.092-0.891-0.099-2.04-1.16-7.04-7.74-22.1-18.1-40.3-10.3-18.2-24.4-40-40.5-62.3-16.1-22.4-32.2-42.6-46.2-58.1-2.3-2.56-4.53-4.93-6.72-7.21 2.65-1.47 4.75-3.61 6.19-6.12z"
                  color="#000000" color-rendering="auto" dominant-baseline="auto" fill="#42aee5" image-rendering="auto"
                  solid-color="#000000" stop-color="#000000"
                  style="font-feature-settings:normal;font-variant-alternates:normal;font-variant-caps:normal;font-variant-east-asian:normal;font-variant-ligatures:normal;font-variant-numeric:normal;font-variant-position:normal;font-variation-settings:normal;inline-size:0;isolation:auto;mix-blend-mode:normal;paint-order:fill markers stroke;shape-margin:0;shape-padding:0;text-decoration-color:#000000;text-decoration-line:none;text-decoration-style:solid;text-indent:0;text-orientation:mixed;text-transform:none;white-space:normal"/>
            <path d="m984 910c2.59 6.17 9.69 9.07 15.9 6.48 6.17-2.59 9.07-9.69 6.48-15.9-2.59-6.17-9.69-9.07-15.9-6.48-6.17 2.59-9.07 9.69-6.48 15.9"
                  color="#000000" color-rendering="auto" dominant-baseline="auto" fill="#ff790a" image-rendering="auto"
                  solid-color="#000000" stop-color="#000000"
                  style="font-feature-settings:normal;font-variant-alternates:normal;font-variant-caps:normal;font-variant-east-asian:normal;font-variant-ligatures:normal;font-variant-numeric:normal;font-variant-position:normal;font-variation-settings:normal;inline-size:0;isolation:auto;mix-blend-mode:normal;paint-order:fill markers stroke;shape-margin:0;shape-padding:0;text-decoration-color:#000000;text-decoration-line:none;text-decoration-style:solid;text-indent:0;text-orientation:mixed;text-transform:none;white-space:normal"/>
        </g>
        <g fill="none" stroke="#42aee5" stroke-linejoin="round">
            <path transform="rotate(-16.3)" d="m468 1008a290 290 0 0 1 251-145 290 290 0 0 1 251 145"
                  stop-color="#000000" stroke-width="21.4" style="paint-order:fill markers stroke"/>
            <path transform="rotate(-16.3)" d="m552 1020a193 193 0 0 1 168-96.7 193 193 0 0 1 168 96.7"
                  stop-color="#000000" stroke-width="14.3" style="paint-order:fill markers stroke"/>
            <path transform="rotate(-16.3)" d="m636 1031a96.7 96.7 0 0 1 83.8-48.4 96.7 96.7 0 0 1 83.8 48.4"
                  stop-color="#000000" stroke-linecap="round" stroke-width="7.14"
                  style="paint-order:fill markers stroke"/>
        </g>
        <g shape-rendering="auto">
            <path d="m1059 763-11 161c1.29-1.57 2.56-3.07 3.55-4.22l10.7-157z" color="#000000" color-rendering="auto"
                  dominant-baseline="auto" fill="url(#d)" image-rendering="auto" solid-color="#000000"
                  stop-color="#000000"
                  style="font-feature-settings:normal;font-variant-alternates:normal;font-variant-caps:normal;font-variant-east-asian:normal;font-variant-ligatures:normal;font-variant-numeric:normal;font-variant-position:normal;font-variation-settings:normal;inline-size:0;isolation:auto;mix-blend-mode:normal;shape-margin:0;shape-padding:0;text-decoration-color:#000000;text-decoration-line:none;text-decoration-style:solid;text-indent:0;text-orientation:mixed;text-transform:none;white-space:normal"/>
            <path d="m1137 729-55.9 157c1.73-1.72 3.46-3.38 5.2-4.91l53.8-151z" color="#000000" color-rendering="auto"
                  dominant-baseline="auto" fill="url(#c)" image-rendering="auto" solid-color="#000000"
                  stop-color="#000000"
                  style="font-feature-settings:normal;font-variant-alternates:normal;font-variant-caps:normal;font-variant-east-asian:normal;font-variant-ligatures:normal;font-variant-numeric:normal;font-variant-position:normal;font-variation-settings:normal;inline-size:0;isolation:auto;mix-blend-mode:normal;shape-margin:0;shape-padding:0;text-decoration-color:#000000;text-decoration-line:none;text-decoration-style:solid;text-indent:0;text-orientation:mixed;text-transform:none;white-space:normal"/>
            <path d="m1214 693-99.5 175c1.14 0.0419 2.32 0.184 3.52 0.404l98.8-173z" color="#000000"
                  color-rendering="auto" dominant-baseline="auto" fill="url(#b)" image-rendering="auto"
                  solid-color="#000000" stop-color="#000000"
                  style="font-feature-settings:normal;font-variant-alternates:normal;font-variant-caps:normal;font-variant-east-asian:normal;font-variant-ligatures:normal;font-variant-numeric:normal;font-variant-position:normal;font-variation-settings:normal;inline-size:0;isolation:auto;mix-blend-mode:normal;shape-margin:0;shape-padding:0;text-decoration-color:#000000;text-decoration-line:none;text-decoration-style:solid;text-indent:0;text-orientation:mixed;text-transform:none;white-space:normal"/>
        </g>
    </g>
</svg>
