<svg xmlns:xlink="http://www.w3.org/1999/xlink" xmlns="http://www.w3.org/2000/svg" width="42" height="42" fill="none"
>
    <g clip-path="url(#A)">
        <path d="M37.355 29.039l-16.34 9.434-16.339-9.434V10.172L21.015.738l16.34 9.434v18.867z" fill="#060322"/>
        <use xlink:href="#B" fill="#f5737f"/>
        <path d="M39.98 10.174c0 1.45-1.175 2.625-2.625 2.625s-2.625-1.175-2.625-2.625 1.175-2.625 2.625-2.625 2.625 1.175 2.625 2.625z"
              fill="#ffcb7c"/>
        <path d="M7.301 10.174c0 1.45-1.175 2.625-2.625 2.625s-2.625-1.175-2.625-2.625 1.175-2.625 2.625-2.625 2.625 1.175 2.625 2.625z"
              fill="#cff1fb"/>
        <g fill="#060322">
            <path d="M21.015 7.102l-10.828 6.251v12.503l10.828 6.252 10.828-6.252V13.353L21.015 7.102z"/>
            <path d="M31.843 25.859V13.356l-10.828 6.252V32.11l10.828-6.252z"/>
            <path d="M10.187 25.859V13.356l10.828 6.252V32.11l-10.828-6.252z"/>
        </g>
        <path d="M40.8 10.174a3.45 3.45 0 0 0-3.445-3.445c-.975 0-1.857.408-2.484 1.062L21.425.028a.82.82 0 0 0-.82 0L7.16 7.79c-.627-.654-1.509-1.062-2.484-1.062a3.45 3.45 0 0 0-3.445 3.445 3.45 3.45 0 0 0 2.625 3.346v15.52a.82.82 0 0 0 .41.71l13.441 7.76c-.089.306-.138.629-.138.963a3.45 3.45 0 0 0 3.445 3.445 3.45 3.45 0 0 0 3.445-3.445 3.43 3.43 0 0 0-.137-.962l13.443-7.761a.82.82 0 0 0 .41-.71v-15.52a3.45 3.45 0 0 0 2.625-3.346zm-37.929 0c0-.995.809-1.805 1.805-1.805s1.804.809 1.804 1.805-.809 1.805-1.804 1.805-1.805-.81-1.805-1.805zm18.143 30.104c-.995 0-1.805-.809-1.805-1.805s.809-1.805 1.805-1.805a1.81 1.81 0 0 1 1.805 1.805c0 .995-.81 1.805-1.805 1.805zm2.486-4.187c-.628-.655-1.51-1.063-2.486-1.063s-1.858.408-2.485 1.063L5.496 28.566V13.519a3.45 3.45 0 0 0 2.625-3.346c0-.334-.049-.658-.138-.964l13.032-7.524L34.048 9.21c-.089.306-.138.629-.138.964a3.45 3.45 0 0 0 2.625 3.346v15.046L23.5 36.091zm13.855-24.112a1.81 1.81 0 0 1-1.805-1.805c0-.995.81-1.805 1.805-1.805s1.805.809 1.805 1.805-.809 1.805-1.805 1.805z"
              fill="#615216"/>
        <path d="M32.253 12.644L21.425 6.393a.82.82 0 0 0-.82 0L9.777 12.644a.82.82 0 0 0-.41.71v12.503a.82.82 0 0 0 .41.71l10.828 6.252a.82.82 0 0 0 .82 0l10.828-6.252a.82.82 0 0 0 .41-.71V13.355a.82.82 0 0 0-.41-.71zM21.015 8.051l9.188 5.304-9.188 5.305-9.187-5.305 9.187-5.304zm.82 22.638v-3.7a.82.82 0 1 0-1.64 0v3.7l-9.188-5.305V14.776l9.598 5.541a.82.82 0 0 0 .82 0l9.598-5.541v10.609l-9.187 5.305z"
              fill="#f19e22"/>
        <path d="M21.015 22.477c-.217 0-.427.087-.581.24s-.24.364-.24.58.088.427.24.58a.83.83 0 0 0 .581.241c.216 0 .427-.088.58-.241s.24-.364.24-.58-.088-.428-.24-.58-.364-.24-.58-.24z"
              fill="#000"/>
    </g>
    <defs>
        <clipPath id="A">
            <path fill="#fff" d="M0 0h42v42H0z"/>
        </clipPath>
        <path id="B"
              d="M23.639 38.473c0 1.45-1.175 2.625-2.625 2.625s-2.625-1.175-2.625-2.625 1.175-2.625 2.625-2.625 2.625 1.175 2.625 2.625z"/>
    </defs>
</svg>
